<svg width="615" height="381" viewBox="0 0 615 381" fill="none" xmlns="http://www.w3.org/2000/svg">
<g opacity="0.3" filter="url(#filter0_bd_615_3668)">
<rect x="119.497" y="164.523" width="29.5912" height="29.5912" rx="5.64464" fill="url(#paint0_linear_615_3668)" fill-opacity="0.95" shape-rendering="crispEdges"/>
</g>
<g opacity="0.8" filter="url(#filter1_bd_615_3668)">
<rect x="158.952" y="191.648" width="29.5912" height="29.5912" rx="5.64464" fill="url(#paint1_linear_615_3668)" fill-opacity="0.95" shape-rendering="crispEdges"/>
</g>
<g filter="url(#filter2_bd_615_3668)">
<rect x="99.769" y="199.866" width="39.4549" height="39.4549" rx="8.06378" fill="url(#paint2_linear_615_3668)"/>
</g>
<g opacity="0.2" filter="url(#filter3_bd_615_3668)">
<rect x="71" y="130" width="51.7846" height="51.7846" rx="8.06378" fill="url(#paint3_linear_615_3668)" fill-opacity="0.95" shape-rendering="crispEdges"/>
</g>
<g filter="url(#filter4_d_615_3668)">
<rect x="93" y="47" width="479" height="300" rx="25" fill="#21214C" fill-opacity="0.02"/>
</g>
<g filter="url(#filter5_b_615_3668)">
<rect x="93" y="47" width="479" height="300" rx="25" fill="url(#paint4_linear_615_3668)"/>
<rect x="93.5" y="47.5" width="478" height="299" rx="24.5" stroke="#ACADAD" stroke-opacity="0.2"/>
</g>
<g filter="url(#filter6_b_615_3668)">
<path d="M93 72C93 58.1929 104.193 47 118 47H547C560.807 47 572 58.1929 572 72V87H93V72Z" fill="url(#paint5_linear_615_3668)"/>
<path d="M93.5 72C93.5 58.469 104.469 47.5 118 47.5H547C560.531 47.5 571.5 58.469 571.5 72V86.5H93.5V72Z" stroke="#ACADAD" stroke-opacity="0.2"/>
</g>
<g opacity="0.3">
<rect x="103" y="96" width="59" height="51.9712" fill="#9043C6"/>
<rect x="170" y="96" width="59" height="51.9712" fill="#9043C6"/>
<rect x="236" y="96" width="59" height="51.9712" fill="#9043C6"/>
<rect x="303" y="96" width="59" height="51.9712" fill="#9043C6"/>
<rect x="370" y="96" width="59" height="51.9712" fill="#9043C6"/>
<rect x="436" y="96" width="59" height="51.9712" fill="#9043C6"/>
<rect x="503" y="96" width="59" height="51.9712" fill="#9043C6"/>
</g>
<rect opacity="0.3" x="103" y="157" width="59" height="51.9712" fill="#9043C6"/>
<rect opacity="0.3" x="170" y="157" width="59" height="51.9712" fill="#9043C6"/>
<rect opacity="0.3" x="236" y="157" width="59" height="51.9712" fill="#9043C6"/>
<rect opacity="0.3" x="303" y="157.01" width="59" height="51.9712" fill="#9043C6"/>
<rect opacity="0.3" x="436" y="157.01" width="59" height="51.9712" fill="#9043C6"/>
<rect opacity="0.3" x="503" y="157.01" width="59" height="51.9712" fill="#9043C6"/>
<g filter="url(#filter7_d_615_3668)">
<rect x="349" y="132" width="100" height="89" rx="5" fill="#9043C6"/>
</g>
<g opacity="0.3">
<rect x="103" y="218.019" width="59" height="51.9712" fill="#9043C6"/>
<rect x="170" y="218.019" width="59" height="51.9712" fill="#9043C6"/>
<rect x="236" y="218.019" width="59" height="51.9712" fill="#9043C6"/>
<rect x="303" y="218.019" width="59" height="51.9712" fill="#9043C6"/>
<rect x="370" y="218.019" width="59" height="51.9712" fill="#9043C6"/>
<rect x="436" y="218.019" width="59" height="51.9712" fill="#9043C6"/>
<rect x="503" y="218.019" width="59" height="51.9712" fill="#9043C6"/>
</g>
<g opacity="0.3">
<rect x="103" y="279.029" width="59" height="51.9712" fill="#9043C6"/>
<rect x="170" y="279.029" width="59" height="51.9712" fill="#9043C6"/>
<rect x="236" y="279.029" width="59" height="51.9712" fill="#9043C6"/>
<rect x="303" y="279.029" width="59" height="51.9712" fill="#9043C6"/>
<rect x="370" y="279.029" width="59" height="51.9712" fill="#9043C6"/>
<rect x="436" y="279.029" width="59" height="51.9712" fill="#9043C6"/>
<rect x="503" y="279.029" width="59" height="51.9712" fill="#9043C6"/>
</g>
<g filter="url(#filter8_bd_615_3668)">
<rect x="64" y="60" width="51.7846" height="51.7846" rx="8.06378" fill="url(#paint6_linear_615_3668)"/>
</g>
<g filter="url(#filter9_bd_615_3668)">
<rect x="19" y="87.2244" width="23.8373" height="23.8373" rx="4.03189" fill="url(#paint7_linear_615_3668)" fill-opacity="0.95" shape-rendering="crispEdges"/>
</g>
<g opacity="0.4" filter="url(#filter10_bd_615_3668)">
<rect x="48.5914" y="98.7322" width="28.7692" height="28.7692" rx="5.64464" fill="url(#paint8_linear_615_3668)" fill-opacity="0.95" shape-rendering="crispEdges"/>
</g>
<g filter="url(#filter11_bd_615_3668)">
<rect x="43" y="36" width="28.7692" height="28.7692" rx="5.64464" fill="url(#paint9_linear_615_3668)"/>
</g>
<path d="M182.607 290.651H181.766C179.522 270.274 161.57 254.304 140.251 254.304C132.958 254.304 125.946 256.231 119.775 259.536C111.64 243.29 94.8099 232 74.8942 232C47.405 232 25.2452 253.753 25.2452 280.738C25.2452 284.593 25.8062 288.173 26.3672 291.752C11.2201 295.056 0 308.549 0 324.244C0 342.693 15.4276 357.837 34.2213 357.837L39.8314 357.562H176.717L182.607 357.837C201.401 357.837 216.829 342.968 216.829 324.244C216.829 305.52 201.401 290.651 182.607 290.651Z" fill="url(#paint10_linear_615_3668)" fill-opacity="0.02"/>
<path d="M182.607 290.651H181.766C179.522 270.274 161.57 254.304 140.251 254.304C132.958 254.304 125.946 256.231 119.775 259.536C111.64 243.29 94.8099 232 74.8942 232C47.405 232 25.2452 253.753 25.2452 280.738C25.2452 284.593 25.8062 288.173 26.3672 291.752C11.2201 295.056 0 308.549 0 324.244C0 342.693 15.4276 357.837 34.2213 357.837L39.8314 357.562H176.717L182.607 357.837C201.401 357.837 216.829 342.968 216.829 324.244C216.829 305.52 201.401 290.651 182.607 290.651Z" fill="url(#paint11_linear_615_3668)"/>
<g filter="url(#filter12_b_615_3668)">
<path d="M195.564 315.529H196.045C197.327 303.881 207.59 294.751 219.778 294.751C223.947 294.751 227.956 295.853 231.484 297.741C236.134 288.454 245.755 282 257.141 282C272.856 282 285.524 294.436 285.524 309.862C285.524 312.066 285.203 314.113 284.883 316.159C293.542 318.048 299.956 325.761 299.956 334.734C299.956 345.281 291.137 353.939 280.393 353.939L277.185 353.781H198.931L195.564 353.939C184.82 353.939 176 345.438 176 334.734C176 324.03 184.82 315.529 195.564 315.529Z" fill="url(#paint12_linear_615_3668)" fill-opacity="0.02"/>
</g>
<path d="M195.564 315.529H196.045C197.327 303.881 207.59 294.751 219.778 294.751C223.947 294.751 227.956 295.853 231.484 297.741C236.134 288.454 245.755 282 257.141 282C272.856 282 285.524 294.436 285.524 309.862C285.524 312.066 285.203 314.113 284.883 316.159C293.542 318.048 299.956 325.761 299.956 334.734C299.956 345.281 291.137 353.939 280.393 353.939L277.185 353.781H198.931L195.564 353.939C184.82 353.939 176 345.438 176 334.734C176 324.03 184.82 315.529 195.564 315.529Z" fill="url(#paint13_linear_615_3668)"/>
<g filter="url(#filter13_b_615_3668)">
<path d="M480.623 312.105H481.241C482.891 297.129 496.084 285.392 511.752 285.392C517.112 285.392 522.266 286.809 526.801 289.237C532.78 277.297 545.149 269 559.786 269C579.989 269 596.275 284.987 596.275 304.82C596.275 307.653 595.863 310.284 595.45 312.914C606.583 315.343 614.829 325.259 614.829 336.794C614.829 350.353 603.49 361.483 589.678 361.483L585.555 361.281H484.952L480.623 361.483C466.811 361.483 455.472 350.555 455.472 336.794C455.472 323.033 466.811 312.105 480.623 312.105Z" fill="url(#paint14_linear_615_3668)" fill-opacity="0.02"/>
</g>
<path d="M480.623 312.105H481.241C482.891 297.129 496.084 285.392 511.752 285.392C517.112 285.392 522.266 286.809 526.801 289.237C532.78 277.297 545.149 269 559.786 269C579.989 269 596.275 284.987 596.275 304.82C596.275 307.653 595.863 310.284 595.45 312.914C606.583 315.343 614.829 325.259 614.829 336.794C614.829 350.353 603.49 361.483 589.678 361.483L585.555 361.281H484.952L480.623 361.483C466.811 361.483 455.472 350.555 455.472 336.794C455.472 323.033 466.811 312.105 480.623 312.105Z" fill="url(#paint15_linear_615_3668)"/>
<path opacity="0.1" d="M145.17 63.8299C145.17 67.4199 142.26 70.3399 138.66 70.3399C135.06 70.3399 132.15 67.4299 132.15 63.8299C132.15 60.2299 135.06 57.3199 138.66 57.3199C142.26 57.3199 145.17 60.2299 145.17 63.8299Z" fill="#01011E"/>
<path d="M142.6 63.8299C142.6 66.0099 140.84 67.7699 138.66 67.7699C136.48 67.7699 134.72 66.0099 134.72 63.8299C134.72 61.6499 136.48 59.8899 138.66 59.8899C140.84 59.8899 142.6 61.6499 142.6 63.8299Z" fill="#01011E"/>
<path opacity="0.1" d="M172.63 70.3399C176.225 70.3399 179.14 67.4253 179.14 63.8299C179.14 60.2346 176.225 57.3199 172.63 57.3199C169.035 57.3199 166.12 60.2346 166.12 63.8299C166.12 67.4253 169.035 70.3399 172.63 70.3399Z" fill="#01011E"/>
<path d="M176.56 63.8299C176.56 66.0099 174.8 67.7699 172.62 67.7699C170.44 67.7699 168.68 66.0099 168.68 63.8299C168.68 61.6499 170.44 59.8899 172.62 59.8899C174.8 59.8899 176.56 61.6499 176.56 63.8299Z" fill="#01011E"/>
<path opacity="0.1" d="M213.1 63.8299C213.1 67.4199 210.19 70.3399 206.59 70.3399C202.99 70.3399 200.08 67.4299 200.08 63.8299C200.08 60.2299 202.99 57.3199 206.59 57.3199C210.19 57.3199 213.1 60.2299 213.1 63.8299Z" fill="#01011E"/>
<path d="M210.53 63.8299C210.53 66.0099 208.77 67.7699 206.59 67.7699C204.41 67.7699 202.65 66.0099 202.65 63.8299C202.65 61.6499 204.41 59.8899 206.59 59.8899C208.77 59.8899 210.53 61.6499 210.53 63.8299Z" fill="#01011E"/>
<path opacity="0.1" d="M247.16 63.8299C247.16 67.4199 244.25 70.3399 240.65 70.3399C237.05 70.3399 234.14 67.4299 234.14 63.8299C234.14 60.2299 237.05 57.3199 240.65 57.3199C244.25 57.3199 247.16 60.2299 247.16 63.8299Z" fill="#01011E"/>
<path d="M244.59 63.8299C244.59 66.0099 242.83 67.7699 240.65 67.7699C238.47 67.7699 236.71 66.0099 236.71 63.8299C236.71 61.6499 238.47 59.8899 240.65 59.8899C242.83 59.8899 244.59 61.6499 244.59 63.8299Z" fill="#01011E"/>
<path opacity="0.1" d="M274.74 70.3399C278.335 70.3399 281.25 67.4253 281.25 63.8299C281.25 60.2346 278.335 57.3199 274.74 57.3199C271.145 57.3199 268.23 60.2346 268.23 63.8299C268.23 67.4253 271.145 70.3399 274.74 70.3399Z" fill="#01011E"/>
<path d="M278.68 63.8299C278.68 66.0099 276.92 67.7699 274.74 67.7699C272.56 67.7699 270.8 66.0099 270.8 63.8299C270.8 61.6499 272.56 59.8899 274.74 59.8899C276.92 59.8899 278.68 61.6499 278.68 63.8299Z" fill="#01011E"/>
<path opacity="0.1" d="M308.64 70.3399C312.235 70.3399 315.15 67.4253 315.15 63.8299C315.15 60.2346 312.235 57.3199 308.64 57.3199C305.045 57.3199 302.13 60.2346 302.13 63.8299C302.13 67.4253 305.045 70.3399 308.64 70.3399Z" fill="#01011E"/>
<path d="M312.57 63.8299C312.57 66.0099 310.81 67.7699 308.63 67.7699C306.45 67.7699 304.69 66.0099 304.69 63.8299C304.69 61.6499 306.45 59.8899 308.63 59.8899C310.81 59.8899 312.57 61.6499 312.57 63.8299Z" fill="#01011E"/>
<path opacity="0.1" d="M342.63 70.3399C346.225 70.3399 349.14 67.4253 349.14 63.8299C349.14 60.2346 346.225 57.3199 342.63 57.3199C339.035 57.3199 336.12 60.2346 336.12 63.8299C336.12 67.4253 339.035 70.3399 342.63 70.3399Z" fill="#01011E"/>
<path d="M346.57 63.8299C346.57 66.0099 344.81 67.7699 342.63 67.7699C340.45 67.7699 338.69 66.0099 338.69 63.8299C338.69 61.6499 340.45 59.8899 342.63 59.8899C344.81 59.8899 346.57 61.6499 346.57 63.8299Z" fill="#01011E"/>
<path opacity="0.1" d="M376.74 70.3399C380.335 70.3399 383.25 67.4253 383.25 63.8299C383.25 60.2346 380.335 57.3199 376.74 57.3199C373.145 57.3199 370.23 60.2346 370.23 63.8299C370.23 67.4253 373.145 70.3399 376.74 70.3399Z" fill="#01011E"/>
<path d="M380.68 63.8299C380.68 66.0099 378.92 67.7699 376.74 67.7699C374.56 67.7699 372.8 66.0099 372.8 63.8299C372.8 61.6499 374.56 59.8899 376.74 59.8899C378.92 59.8899 380.68 61.6499 380.68 63.8299Z" fill="#01011E"/>
<path opacity="0.1" d="M417.16 63.8299C417.16 67.4199 414.25 70.3399 410.65 70.3399C407.05 70.3399 404.14 67.4299 404.14 63.8299C404.14 60.2299 407.05 57.3199 410.65 57.3199C414.25 57.3199 417.16 60.2299 417.16 63.8299Z" fill="#01011E"/>
<path d="M414.59 63.8299C414.59 66.0099 412.83 67.7699 410.65 67.7699C408.47 67.7699 406.71 66.0099 406.71 63.8299C406.71 61.6499 408.47 59.8899 410.65 59.8899C412.83 59.8899 414.59 61.6499 414.59 63.8299Z" fill="#01011E"/>
<path opacity="0.1" d="M451.21 63.8299C451.21 67.4199 448.3 70.3399 444.7 70.3399C441.1 70.3399 438.19 67.4299 438.19 63.8299C438.19 60.2299 441.1 57.3199 444.7 57.3199C448.3 57.3199 451.21 60.2299 451.21 63.8299Z" fill="#01011E"/>
<path d="M448.64 63.8299C448.64 66.0099 446.88 67.7699 444.7 67.7699C442.52 67.7699 440.76 66.0099 440.76 63.8299C440.76 61.6499 442.52 59.8899 444.7 59.8899C446.88 59.8899 448.64 61.6499 448.64 63.8299Z" fill="#01011E"/>
<path opacity="0.1" d="M485.12 63.8299C485.12 67.4199 482.21 70.3399 478.61 70.3399C475.01 70.3399 472.1 67.4299 472.1 63.8299C472.1 60.2299 475.01 57.3199 478.61 57.3199C482.21 57.3199 485.12 60.2299 485.12 63.8299Z" fill="#01011E"/>
<path d="M482.55 63.8299C482.55 66.0099 480.79 67.7699 478.61 67.7699C476.43 67.7699 474.67 66.0099 474.67 63.8299C474.67 61.6499 476.43 59.8899 478.61 59.8899C480.79 59.8899 482.55 61.6499 482.55 63.8299Z" fill="#01011E"/>
<path opacity="0.1" d="M519.17 63.8299C519.17 67.4199 516.26 70.3399 512.66 70.3399C509.06 70.3399 506.15 67.4299 506.15 63.8299C506.15 60.2299 509.06 57.3199 512.66 57.3199C516.26 57.3199 519.17 60.2299 519.17 63.8299Z" fill="#01011E"/>
<path d="M516.61 63.8299C516.61 66.0099 514.85 67.7699 512.67 67.7699C510.49 67.7699 508.73 66.0099 508.73 63.8299C508.73 61.6499 510.49 59.8899 512.67 59.8899C514.85 59.8899 516.61 61.6499 516.61 63.8299Z" fill="#01011E"/>
<path opacity="0.1" d="M546.64 70.3399C550.235 70.3399 553.15 67.4253 553.15 63.8299C553.15 60.2346 550.235 57.3199 546.64 57.3199C543.045 57.3199 540.13 60.2346 540.13 63.8299C540.13 67.4253 543.045 70.3399 546.64 70.3399Z" fill="#01011E"/>
<path d="M550.58 63.8299C550.58 66.0099 548.82 67.7699 546.64 67.7699C544.46 67.7699 542.7 66.0099 542.7 63.8299C542.7 61.6499 544.46 59.8899 546.64 59.8899C548.82 59.8899 550.58 61.6499 550.58 63.8299Z" fill="#01011E"/>
<path d="M141.85 50.07C141.85 53.32 141.49 63.9 141.49 63.9C141.49 67.57 135.8 67.56 135.8 63.9C135.8 60.24 135.8 53.72 135.8 47.75C135.8 39.62 132.25 36.68 128.73 36.68C124.33 36.68 121.72 41.98 121.72 47.56H116C115.99 34.9 122.05 30.01 128.28 30.01C137.77 30.01 141.85 36.34 141.85 50.07Z" fill="url(#paint16_linear_615_3668)"/>
<path d="M175.86 50.07C175.86 53.32 175.5 63.9 175.5 63.9C175.5 67.57 169.81 67.56 169.81 63.9C169.81 60.24 169.81 53.72 169.81 47.75C169.81 39.62 166.26 36.68 162.74 36.68C158.34 36.68 155.73 41.98 155.73 47.56H150.01C150.01 34.88 156.07 30 162.3 30C171.79 30 175.87 36.33 175.87 50.06L175.86 50.07Z" fill="url(#paint17_linear_615_3668)"/>
<path d="M209.86 50.07C209.86 53.32 209.5 63.9 209.5 63.9C209.5 67.57 203.81 67.56 203.81 63.9C203.81 60.24 203.81 53.72 203.81 47.75C203.81 39.62 200.26 36.68 196.74 36.68C192.34 36.68 189.73 41.98 189.73 47.56H184.01C184.01 34.88 190.07 30 196.3 30C205.79 30 209.87 36.33 209.87 50.06L209.86 50.07Z" fill="url(#paint18_linear_615_3668)"/>
<path d="M243.86 50.07C243.86 53.32 243.5 63.9 243.5 63.9C243.5 67.57 237.81 67.56 237.81 63.9C237.81 60.24 237.81 53.72 237.81 47.75C237.81 39.62 234.26 36.68 230.74 36.68C226.34 36.68 223.73 41.98 223.73 47.56H218.01C218.01 34.88 224.07 30 230.3 30C239.79 30 243.87 36.33 243.87 50.06L243.86 50.07Z" fill="url(#paint19_linear_615_3668)"/>
<path d="M277.87 50.07C277.87 53.32 277.51 63.9 277.51 63.9C277.51 67.57 271.82 67.56 271.82 63.9C271.82 60.24 271.82 53.72 271.82 47.75C271.82 39.62 268.27 36.68 264.75 36.68C260.35 36.68 257.74 41.98 257.74 47.56H252.02C252.02 34.88 258.08 30 264.31 30C273.8 30 277.88 36.33 277.88 50.06L277.87 50.07Z" fill="url(#paint20_linear_615_3668)"/>
<path d="M311.87 50.07C311.87 53.32 311.51 63.9 311.51 63.9C311.51 67.57 305.82 67.56 305.82 63.9C305.82 60.24 305.82 53.72 305.82 47.75C305.82 39.62 302.27 36.68 298.75 36.68C294.35 36.68 291.74 41.98 291.74 47.56H286.02C286.02 34.88 292.08 30 298.31 30C307.8 30 311.88 36.33 311.88 50.06L311.87 50.07Z" fill="url(#paint21_linear_615_3668)"/>
<path d="M345.87 50.07C345.87 53.32 345.51 63.9 345.51 63.9C345.51 67.57 339.82 67.56 339.82 63.9C339.82 60.24 339.82 53.72 339.82 47.75C339.82 39.62 336.27 36.68 332.75 36.68C328.35 36.68 325.74 41.98 325.74 47.56H320.02C320.02 34.88 326.08 30 332.31 30C341.8 30 345.88 36.33 345.88 50.06L345.87 50.07Z" fill="url(#paint22_linear_615_3668)"/>
<path d="M379.88 50.07C379.88 53.32 379.52 63.9 379.52 63.9C379.52 67.57 373.83 67.56 373.83 63.9C373.83 60.24 373.83 53.72 373.83 47.75C373.83 39.62 370.28 36.68 366.76 36.68C362.36 36.68 359.75 41.98 359.75 47.56H354.03C354.03 34.88 360.09 30 366.32 30C375.81 30 379.89 36.33 379.89 50.06L379.88 50.07Z" fill="url(#paint23_linear_615_3668)"/>
<path d="M413.88 50.07C413.88 53.32 413.52 63.9 413.52 63.9C413.52 67.57 407.83 67.56 407.83 63.9C407.83 60.24 407.83 53.72 407.83 47.75C407.83 39.62 404.28 36.68 400.76 36.68C396.36 36.68 393.75 41.98 393.75 47.56H388.03C388.03 34.88 394.09 30 400.32 30C409.81 30 413.89 36.33 413.89 50.06L413.88 50.07Z" fill="url(#paint24_linear_615_3668)"/>
<path d="M447.88 50.07C447.88 53.32 447.52 63.9 447.52 63.9C447.52 67.57 441.83 67.56 441.83 63.9C441.83 60.24 441.83 53.72 441.83 47.75C441.83 39.62 438.28 36.68 434.76 36.68C430.36 36.68 427.75 41.98 427.75 47.56H422.03C422.03 34.88 428.09 30 434.32 30C443.81 30 447.89 36.33 447.89 50.06L447.88 50.07Z" fill="url(#paint25_linear_615_3668)"/>
<path d="M481.89 50.07C481.89 53.32 481.53 63.9 481.53 63.9C481.53 67.57 475.84 67.56 475.84 63.9C475.84 60.24 475.84 53.72 475.84 47.75C475.84 39.62 472.29 36.68 468.77 36.68C464.37 36.68 461.76 41.98 461.76 47.56H456.04C456.04 34.88 462.1 30 468.33 30C477.82 30 481.9 36.33 481.9 50.06L481.89 50.07Z" fill="url(#paint26_linear_615_3668)"/>
<path d="M515.89 50.07C515.89 53.32 515.53 63.9 515.53 63.9C515.53 67.57 509.84 67.56 509.84 63.9C509.84 60.24 509.84 53.72 509.84 47.75C509.84 39.62 506.29 36.68 502.77 36.68C498.37 36.68 495.76 41.98 495.76 47.56H490.04C490.04 34.88 496.1 30 502.33 30C511.82 30 515.9 36.33 515.9 50.06L515.89 50.07Z" fill="url(#paint27_linear_615_3668)"/>
<path d="M549.89 50.07C549.89 53.32 549.53 63.9 549.53 63.9C549.53 67.57 543.84 67.56 543.84 63.9C543.84 60.24 543.84 53.72 543.84 47.75C543.84 39.62 540.29 36.68 536.77 36.68C532.37 36.68 529.76 41.98 529.76 47.56H524.04C524.04 34.88 530.1 30 536.33 30C545.82 30 549.9 36.33 549.9 50.06L549.89 50.07Z" fill="url(#paint28_linear_615_3668)"/>
<g filter="url(#filter14_d_615_3668)">
<rect x="176" y="118" width="47" height="7" rx="2.64873" fill="url(#paint29_linear_615_3668)"/>
</g>
<g opacity="0.7" filter="url(#filter15_d_615_3668)">
<rect x="176" y="131" width="30" height="7" rx="2.64873" fill="url(#paint30_linear_615_3668)"/>
</g>
<g filter="url(#filter16_d_615_3668)">
<rect x="359" y="173" width="80" height="12" rx="2.64873" fill="url(#paint31_linear_615_3668)"/>
</g>
<g opacity="0.6" filter="url(#filter17_d_615_3668)">
<rect x="359" y="195" width="51" height="12" rx="2.64873" fill="url(#paint32_linear_615_3668)"/>
</g>
<g filter="url(#filter18_d_615_3668)">
<rect x="308" y="305" width="47" height="7" rx="2.64873" fill="url(#paint33_linear_615_3668)"/>
</g>
<g opacity="0.7" filter="url(#filter19_d_615_3668)">
<rect x="308" y="318" width="30" height="7" rx="2.64873" fill="url(#paint34_linear_615_3668)"/>
</g>
<g filter="url(#filter20_d_615_3668)">
<rect x="108" y="184" width="47" height="7" rx="2.64873" fill="url(#paint35_linear_615_3668)"/>
</g>
<g opacity="0.7" filter="url(#filter21_d_615_3668)">
<rect x="108" y="197" width="30" height="7" rx="2.64873" fill="url(#paint36_linear_615_3668)"/>
</g>
<g filter="url(#filter22_d_615_3668)">
<rect x="241" y="244" width="47" height="7" rx="2.64873" fill="url(#paint37_linear_615_3668)"/>
</g>
<g opacity="0.6" filter="url(#filter23_d_615_3668)">
<rect x="241" y="257" width="30" height="7" rx="2.64873" fill="url(#paint38_linear_615_3668)"/>
</g>
<g filter="url(#filter24_d_615_3668)">
<rect x="509" y="121" width="47" height="7" rx="2.64873" fill="url(#paint39_linear_615_3668)"/>
</g>
<g opacity="0.6" filter="url(#filter25_d_615_3668)">
<rect x="509" y="134" width="30" height="7" rx="2.64873" fill="url(#paint40_linear_615_3668)"/>
</g>
<path d="M474.377 190.321C468.571 221.354 431.551 242.297 389.657 234.459C347.763 226.622 320.817 193.712 326.623 162.679C332.429 131.646 369.449 110.703 411.343 118.541C453.236 126.378 480.182 159.287 474.377 190.321Z" stroke="url(#paint41_angular_615_3668)" stroke-width="10"/>
<defs>
<filter id="filter0_bd_615_3668" x="111.433" y="156.459" width="45.7187" height="45.7187" filterUnits="userSpaceOnUse" color-interpolation-filters="sRGB">
<feFlood flood-opacity="0" result="BackgroundImageFix"/>
<feGaussianBlur in="BackgroundImageFix" stdDeviation="4.03189"/>
<feComposite in2="SourceAlpha" operator="in" result="effect1_backgroundBlur_615_3668"/>
<feColorMatrix in="SourceAlpha" type="matrix" values="0 0 0 0 0 0 0 0 0 0 0 0 0 0 0 0 0 0 127 0" result="hardAlpha"/>
<feOffset/>
<feGaussianBlur stdDeviation="4.03189"/>
<feComposite in2="hardAlpha" operator="out"/>
<feColorMatrix type="matrix" values="0 0 0 0 0.129412 0 0 0 0 0.129412 0 0 0 0 0.298039 0 0 0 0.2 0"/>
<feBlend mode="normal" in2="effect1_backgroundBlur_615_3668" result="effect2_dropShadow_615_3668"/>
<feBlend mode="normal" in="SourceGraphic" in2="effect2_dropShadow_615_3668" result="shape"/>
</filter>
<filter id="filter1_bd_615_3668" x="150.888" y="183.584" width="45.7187" height="45.7187" filterUnits="userSpaceOnUse" color-interpolation-filters="sRGB">
<feFlood flood-opacity="0" result="BackgroundImageFix"/>
<feGaussianBlur in="BackgroundImageFix" stdDeviation="4.03189"/>
<feComposite in2="SourceAlpha" operator="in" result="effect1_backgroundBlur_615_3668"/>
<feColorMatrix in="SourceAlpha" type="matrix" values="0 0 0 0 0 0 0 0 0 0 0 0 0 0 0 0 0 0 127 0" result="hardAlpha"/>
<feOffset/>
<feGaussianBlur stdDeviation="4.03189"/>
<feComposite in2="hardAlpha" operator="out"/>
<feColorMatrix type="matrix" values="0 0 0 0 0.129412 0 0 0 0 0.129412 0 0 0 0 0.298039 0 0 0 0.2 0"/>
<feBlend mode="normal" in2="effect1_backgroundBlur_615_3668" result="effect2_dropShadow_615_3668"/>
<feBlend mode="normal" in="SourceGraphic" in2="effect2_dropShadow_615_3668" result="shape"/>
</filter>
<filter id="filter2_bd_615_3668" x="91.7053" y="191.802" width="55.5825" height="55.5825" filterUnits="userSpaceOnUse" color-interpolation-filters="sRGB">
<feFlood flood-opacity="0" result="BackgroundImageFix"/>
<feGaussianBlur in="BackgroundImageFix" stdDeviation="4.03189"/>
<feComposite in2="SourceAlpha" operator="in" result="effect1_backgroundBlur_615_3668"/>
<feColorMatrix in="SourceAlpha" type="matrix" values="0 0 0 0 0 0 0 0 0 0 0 0 0 0 0 0 0 0 127 0" result="hardAlpha"/>
<feOffset/>
<feGaussianBlur stdDeviation="4.03189"/>
<feComposite in2="hardAlpha" operator="out"/>
<feColorMatrix type="matrix" values="0 0 0 0 0.129412 0 0 0 0 0.129412 0 0 0 0 0.298039 0 0 0 0.2 0"/>
<feBlend mode="normal" in2="effect1_backgroundBlur_615_3668" result="effect2_dropShadow_615_3668"/>
<feBlend mode="normal" in="SourceGraphic" in2="effect2_dropShadow_615_3668" result="shape"/>
</filter>
<filter id="filter3_bd_615_3668" x="62.9362" y="121.936" width="67.9121" height="67.9121" filterUnits="userSpaceOnUse" color-interpolation-filters="sRGB">
<feFlood flood-opacity="0" result="BackgroundImageFix"/>
<feGaussianBlur in="BackgroundImageFix" stdDeviation="4.03189"/>
<feComposite in2="SourceAlpha" operator="in" result="effect1_backgroundBlur_615_3668"/>
<feColorMatrix in="SourceAlpha" type="matrix" values="0 0 0 0 0 0 0 0 0 0 0 0 0 0 0 0 0 0 127 0" result="hardAlpha"/>
<feOffset/>
<feGaussianBlur stdDeviation="4.03189"/>
<feComposite in2="hardAlpha" operator="out"/>
<feColorMatrix type="matrix" values="0 0 0 0 0.129412 0 0 0 0 0.129412 0 0 0 0 0.298039 0 0 0 0.2 0"/>
<feBlend mode="normal" in2="effect1_backgroundBlur_615_3668" result="effect2_dropShadow_615_3668"/>
<feBlend mode="normal" in="SourceGraphic" in2="effect2_dropShadow_615_3668" result="shape"/>
</filter>
<filter id="filter4_d_615_3668" x="63" y="21" width="539" height="360" filterUnits="userSpaceOnUse" color-interpolation-filters="sRGB">
<feFlood flood-opacity="0" result="BackgroundImageFix"/>
<feColorMatrix in="SourceAlpha" type="matrix" values="0 0 0 0 0 0 0 0 0 0 0 0 0 0 0 0 0 0 127 0" result="hardAlpha"/>
<feOffset dy="4"/>
<feGaussianBlur stdDeviation="15"/>
<feColorMatrix type="matrix" values="0 0 0 0 0.129412 0 0 0 0 0.129412 0 0 0 0 0.298039 0 0 0 0.2 0"/>
<feBlend mode="normal" in2="BackgroundImageFix" result="effect1_dropShadow_615_3668"/>
<feBlend mode="normal" in="SourceGraphic" in2="effect1_dropShadow_615_3668" result="shape"/>
</filter>
<filter id="filter5_b_615_3668" x="83" y="37" width="499" height="320" filterUnits="userSpaceOnUse" color-interpolation-filters="sRGB">
<feFlood flood-opacity="0" result="BackgroundImageFix"/>
<feGaussianBlur in="BackgroundImageFix" stdDeviation="5"/>
<feComposite in2="SourceAlpha" operator="in" result="effect1_backgroundBlur_615_3668"/>
<feBlend mode="normal" in="SourceGraphic" in2="effect1_backgroundBlur_615_3668" result="shape"/>
</filter>
<filter id="filter6_b_615_3668" x="83" y="37" width="499" height="60" filterUnits="userSpaceOnUse" color-interpolation-filters="sRGB">
<feFlood flood-opacity="0" result="BackgroundImageFix"/>
<feGaussianBlur in="BackgroundImageFix" stdDeviation="5"/>
<feComposite in2="SourceAlpha" operator="in" result="effect1_backgroundBlur_615_3668"/>
<feBlend mode="normal" in="SourceGraphic" in2="effect1_backgroundBlur_615_3668" result="shape"/>
</filter>
<filter id="filter7_d_615_3668" x="334" y="127" width="130" height="119" filterUnits="userSpaceOnUse" color-interpolation-filters="sRGB">
<feFlood flood-opacity="0" result="BackgroundImageFix"/>
<feColorMatrix in="SourceAlpha" type="matrix" values="0 0 0 0 0 0 0 0 0 0 0 0 0 0 0 0 0 0 127 0" result="hardAlpha"/>
<feOffset dy="10"/>
<feGaussianBlur stdDeviation="7.5"/>
<feColorMatrix type="matrix" values="0 0 0 0 0.00392157 0 0 0 0 0.00392157 0 0 0 0 0.117647 0 0 0 0.4 0"/>
<feBlend mode="normal" in2="BackgroundImageFix" result="effect1_dropShadow_615_3668"/>
<feBlend mode="normal" in="SourceGraphic" in2="effect1_dropShadow_615_3668" result="shape"/>
</filter>
<filter id="filter8_bd_615_3668" x="55.9362" y="51.9362" width="67.9121" height="67.9121" filterUnits="userSpaceOnUse" color-interpolation-filters="sRGB">
<feFlood flood-opacity="0" result="BackgroundImageFix"/>
<feGaussianBlur in="BackgroundImageFix" stdDeviation="4.03189"/>
<feComposite in2="SourceAlpha" operator="in" result="effect1_backgroundBlur_615_3668"/>
<feColorMatrix in="SourceAlpha" type="matrix" values="0 0 0 0 0 0 0 0 0 0 0 0 0 0 0 0 0 0 127 0" result="hardAlpha"/>
<feOffset/>
<feGaussianBlur stdDeviation="4.03189"/>
<feComposite in2="hardAlpha" operator="out"/>
<feColorMatrix type="matrix" values="0 0 0 0 0.129412 0 0 0 0 0.129412 0 0 0 0 0.298039 0 0 0 0.2 0"/>
<feBlend mode="normal" in2="effect1_backgroundBlur_615_3668" result="effect2_dropShadow_615_3668"/>
<feBlend mode="normal" in="SourceGraphic" in2="effect2_dropShadow_615_3668" result="shape"/>
</filter>
<filter id="filter9_bd_615_3668" x="10.9362" y="79.1606" width="39.9649" height="39.965" filterUnits="userSpaceOnUse" color-interpolation-filters="sRGB">
<feFlood flood-opacity="0" result="BackgroundImageFix"/>
<feGaussianBlur in="BackgroundImageFix" stdDeviation="4.03189"/>
<feComposite in2="SourceAlpha" operator="in" result="effect1_backgroundBlur_615_3668"/>
<feColorMatrix in="SourceAlpha" type="matrix" values="0 0 0 0 0 0 0 0 0 0 0 0 0 0 0 0 0 0 127 0" result="hardAlpha"/>
<feOffset/>
<feGaussianBlur stdDeviation="4.03189"/>
<feComposite in2="hardAlpha" operator="out"/>
<feColorMatrix type="matrix" values="0 0 0 0 0.129412 0 0 0 0 0.129412 0 0 0 0 0.298039 0 0 0 0.2 0"/>
<feBlend mode="normal" in2="effect1_backgroundBlur_615_3668" result="effect2_dropShadow_615_3668"/>
<feBlend mode="normal" in="SourceGraphic" in2="effect2_dropShadow_615_3668" result="shape"/>
</filter>
<filter id="filter10_bd_615_3668" x="40.5277" y="90.6684" width="44.8968" height="44.8967" filterUnits="userSpaceOnUse" color-interpolation-filters="sRGB">
<feFlood flood-opacity="0" result="BackgroundImageFix"/>
<feGaussianBlur in="BackgroundImageFix" stdDeviation="4.03189"/>
<feComposite in2="SourceAlpha" operator="in" result="effect1_backgroundBlur_615_3668"/>
<feColorMatrix in="SourceAlpha" type="matrix" values="0 0 0 0 0 0 0 0 0 0 0 0 0 0 0 0 0 0 127 0" result="hardAlpha"/>
<feOffset/>
<feGaussianBlur stdDeviation="4.03189"/>
<feComposite in2="hardAlpha" operator="out"/>
<feColorMatrix type="matrix" values="0 0 0 0 0.129412 0 0 0 0 0.129412 0 0 0 0 0.298039 0 0 0 0.2 0"/>
<feBlend mode="normal" in2="effect1_backgroundBlur_615_3668" result="effect2_dropShadow_615_3668"/>
<feBlend mode="normal" in="SourceGraphic" in2="effect2_dropShadow_615_3668" result="shape"/>
</filter>
<filter id="filter11_bd_615_3668" x="34.9362" y="27.9362" width="44.8968" height="44.8967" filterUnits="userSpaceOnUse" color-interpolation-filters="sRGB">
<feFlood flood-opacity="0" result="BackgroundImageFix"/>
<feGaussianBlur in="BackgroundImageFix" stdDeviation="4.03189"/>
<feComposite in2="SourceAlpha" operator="in" result="effect1_backgroundBlur_615_3668"/>
<feColorMatrix in="SourceAlpha" type="matrix" values="0 0 0 0 0 0 0 0 0 0 0 0 0 0 0 0 0 0 127 0" result="hardAlpha"/>
<feOffset/>
<feGaussianBlur stdDeviation="4.03189"/>
<feComposite in2="hardAlpha" operator="out"/>
<feColorMatrix type="matrix" values="0 0 0 0 0.129412 0 0 0 0 0.129412 0 0 0 0 0.298039 0 0 0 0.2 0"/>
<feBlend mode="normal" in2="effect1_backgroundBlur_615_3668" result="effect2_dropShadow_615_3668"/>
<feBlend mode="normal" in="SourceGraphic" in2="effect2_dropShadow_615_3668" result="shape"/>
</filter>
<filter id="filter12_b_615_3668" x="166" y="272" width="143.956" height="91.9386" filterUnits="userSpaceOnUse" color-interpolation-filters="sRGB">
<feFlood flood-opacity="0" result="BackgroundImageFix"/>
<feGaussianBlur in="BackgroundImageFix" stdDeviation="5"/>
<feComposite in2="SourceAlpha" operator="in" result="effect1_backgroundBlur_615_3668"/>
<feBlend mode="normal" in="SourceGraphic" in2="effect1_backgroundBlur_615_3668" result="shape"/>
</filter>
<filter id="filter13_b_615_3668" x="445.472" y="259" width="179.356" height="112.483" filterUnits="userSpaceOnUse" color-interpolation-filters="sRGB">
<feFlood flood-opacity="0" result="BackgroundImageFix"/>
<feGaussianBlur in="BackgroundImageFix" stdDeviation="5"/>
<feComposite in2="SourceAlpha" operator="in" result="effect1_backgroundBlur_615_3668"/>
<feBlend mode="normal" in="SourceGraphic" in2="effect1_backgroundBlur_615_3668" result="shape"/>
</filter>
<filter id="filter14_d_615_3668" x="172.468" y="115.351" width="54.0633" height="14.0633" filterUnits="userSpaceOnUse" color-interpolation-filters="sRGB">
<feFlood flood-opacity="0" result="BackgroundImageFix"/>
<feColorMatrix in="SourceAlpha" type="matrix" values="0 0 0 0 0 0 0 0 0 0 0 0 0 0 0 0 0 0 127 0" result="hardAlpha"/>
<feOffset dy="0.882911"/>
<feGaussianBlur stdDeviation="1.76582"/>
<feComposite in2="hardAlpha" operator="out"/>
<feColorMatrix type="matrix" values="0 0 0 0 0 0 0 0 0 0 0 0 0 0 0 0 0 0 0.25 0"/>
<feBlend mode="normal" in2="BackgroundImageFix" result="effect1_dropShadow_615_3668"/>
<feBlend mode="normal" in="SourceGraphic" in2="effect1_dropShadow_615_3668" result="shape"/>
</filter>
<filter id="filter15_d_615_3668" x="172.468" y="128.351" width="37.0633" height="14.0633" filterUnits="userSpaceOnUse" color-interpolation-filters="sRGB">
<feFlood flood-opacity="0" result="BackgroundImageFix"/>
<feColorMatrix in="SourceAlpha" type="matrix" values="0 0 0 0 0 0 0 0 0 0 0 0 0 0 0 0 0 0 127 0" result="hardAlpha"/>
<feOffset dy="0.882911"/>
<feGaussianBlur stdDeviation="1.76582"/>
<feComposite in2="hardAlpha" operator="out"/>
<feColorMatrix type="matrix" values="0 0 0 0 0 0 0 0 0 0 0 0 0 0 0 0 0 0 0.25 0"/>
<feBlend mode="normal" in2="BackgroundImageFix" result="effect1_dropShadow_615_3668"/>
<feBlend mode="normal" in="SourceGraphic" in2="effect1_dropShadow_615_3668" result="shape"/>
</filter>
<filter id="filter16_d_615_3668" x="355.468" y="170.351" width="87.0633" height="19.0633" filterUnits="userSpaceOnUse" color-interpolation-filters="sRGB">
<feFlood flood-opacity="0" result="BackgroundImageFix"/>
<feColorMatrix in="SourceAlpha" type="matrix" values="0 0 0 0 0 0 0 0 0 0 0 0 0 0 0 0 0 0 127 0" result="hardAlpha"/>
<feOffset dy="0.882911"/>
<feGaussianBlur stdDeviation="1.76582"/>
<feComposite in2="hardAlpha" operator="out"/>
<feColorMatrix type="matrix" values="0 0 0 0 0 0 0 0 0 0 0 0 0 0 0 0 0 0 0.25 0"/>
<feBlend mode="normal" in2="BackgroundImageFix" result="effect1_dropShadow_615_3668"/>
<feBlend mode="normal" in="SourceGraphic" in2="effect1_dropShadow_615_3668" result="shape"/>
</filter>
<filter id="filter17_d_615_3668" x="355.468" y="192.351" width="58.0633" height="19.0633" filterUnits="userSpaceOnUse" color-interpolation-filters="sRGB">
<feFlood flood-opacity="0" result="BackgroundImageFix"/>
<feColorMatrix in="SourceAlpha" type="matrix" values="0 0 0 0 0 0 0 0 0 0 0 0 0 0 0 0 0 0 127 0" result="hardAlpha"/>
<feOffset dy="0.882911"/>
<feGaussianBlur stdDeviation="1.76582"/>
<feComposite in2="hardAlpha" operator="out"/>
<feColorMatrix type="matrix" values="0 0 0 0 0 0 0 0 0 0 0 0 0 0 0 0 0 0 0.25 0"/>
<feBlend mode="normal" in2="BackgroundImageFix" result="effect1_dropShadow_615_3668"/>
<feBlend mode="normal" in="SourceGraphic" in2="effect1_dropShadow_615_3668" result="shape"/>
</filter>
<filter id="filter18_d_615_3668" x="304.468" y="302.351" width="54.0633" height="14.0633" filterUnits="userSpaceOnUse" color-interpolation-filters="sRGB">
<feFlood flood-opacity="0" result="BackgroundImageFix"/>
<feColorMatrix in="SourceAlpha" type="matrix" values="0 0 0 0 0 0 0 0 0 0 0 0 0 0 0 0 0 0 127 0" result="hardAlpha"/>
<feOffset dy="0.882911"/>
<feGaussianBlur stdDeviation="1.76582"/>
<feComposite in2="hardAlpha" operator="out"/>
<feColorMatrix type="matrix" values="0 0 0 0 0 0 0 0 0 0 0 0 0 0 0 0 0 0 0.25 0"/>
<feBlend mode="normal" in2="BackgroundImageFix" result="effect1_dropShadow_615_3668"/>
<feBlend mode="normal" in="SourceGraphic" in2="effect1_dropShadow_615_3668" result="shape"/>
</filter>
<filter id="filter19_d_615_3668" x="304.468" y="315.351" width="37.0633" height="14.0633" filterUnits="userSpaceOnUse" color-interpolation-filters="sRGB">
<feFlood flood-opacity="0" result="BackgroundImageFix"/>
<feColorMatrix in="SourceAlpha" type="matrix" values="0 0 0 0 0 0 0 0 0 0 0 0 0 0 0 0 0 0 127 0" result="hardAlpha"/>
<feOffset dy="0.882911"/>
<feGaussianBlur stdDeviation="1.76582"/>
<feComposite in2="hardAlpha" operator="out"/>
<feColorMatrix type="matrix" values="0 0 0 0 0 0 0 0 0 0 0 0 0 0 0 0 0 0 0.25 0"/>
<feBlend mode="normal" in2="BackgroundImageFix" result="effect1_dropShadow_615_3668"/>
<feBlend mode="normal" in="SourceGraphic" in2="effect1_dropShadow_615_3668" result="shape"/>
</filter>
<filter id="filter20_d_615_3668" x="104.468" y="181.351" width="54.0633" height="14.0633" filterUnits="userSpaceOnUse" color-interpolation-filters="sRGB">
<feFlood flood-opacity="0" result="BackgroundImageFix"/>
<feColorMatrix in="SourceAlpha" type="matrix" values="0 0 0 0 0 0 0 0 0 0 0 0 0 0 0 0 0 0 127 0" result="hardAlpha"/>
<feOffset dy="0.882911"/>
<feGaussianBlur stdDeviation="1.76582"/>
<feComposite in2="hardAlpha" operator="out"/>
<feColorMatrix type="matrix" values="0 0 0 0 0 0 0 0 0 0 0 0 0 0 0 0 0 0 0.25 0"/>
<feBlend mode="normal" in2="BackgroundImageFix" result="effect1_dropShadow_615_3668"/>
<feBlend mode="normal" in="SourceGraphic" in2="effect1_dropShadow_615_3668" result="shape"/>
</filter>
<filter id="filter21_d_615_3668" x="104.468" y="194.351" width="37.0633" height="14.0633" filterUnits="userSpaceOnUse" color-interpolation-filters="sRGB">
<feFlood flood-opacity="0" result="BackgroundImageFix"/>
<feColorMatrix in="SourceAlpha" type="matrix" values="0 0 0 0 0 0 0 0 0 0 0 0 0 0 0 0 0 0 127 0" result="hardAlpha"/>
<feOffset dy="0.882911"/>
<feGaussianBlur stdDeviation="1.76582"/>
<feComposite in2="hardAlpha" operator="out"/>
<feColorMatrix type="matrix" values="0 0 0 0 0 0 0 0 0 0 0 0 0 0 0 0 0 0 0.25 0"/>
<feBlend mode="normal" in2="BackgroundImageFix" result="effect1_dropShadow_615_3668"/>
<feBlend mode="normal" in="SourceGraphic" in2="effect1_dropShadow_615_3668" result="shape"/>
</filter>
<filter id="filter22_d_615_3668" x="237.468" y="241.351" width="54.0633" height="14.0633" filterUnits="userSpaceOnUse" color-interpolation-filters="sRGB">
<feFlood flood-opacity="0" result="BackgroundImageFix"/>
<feColorMatrix in="SourceAlpha" type="matrix" values="0 0 0 0 0 0 0 0 0 0 0 0 0 0 0 0 0 0 127 0" result="hardAlpha"/>
<feOffset dy="0.882911"/>
<feGaussianBlur stdDeviation="1.76582"/>
<feComposite in2="hardAlpha" operator="out"/>
<feColorMatrix type="matrix" values="0 0 0 0 0 0 0 0 0 0 0 0 0 0 0 0 0 0 0.25 0"/>
<feBlend mode="normal" in2="BackgroundImageFix" result="effect1_dropShadow_615_3668"/>
<feBlend mode="normal" in="SourceGraphic" in2="effect1_dropShadow_615_3668" result="shape"/>
</filter>
<filter id="filter23_d_615_3668" x="237.468" y="254.351" width="37.0633" height="14.0633" filterUnits="userSpaceOnUse" color-interpolation-filters="sRGB">
<feFlood flood-opacity="0" result="BackgroundImageFix"/>
<feColorMatrix in="SourceAlpha" type="matrix" values="0 0 0 0 0 0 0 0 0 0 0 0 0 0 0 0 0 0 127 0" result="hardAlpha"/>
<feOffset dy="0.882911"/>
<feGaussianBlur stdDeviation="1.76582"/>
<feComposite in2="hardAlpha" operator="out"/>
<feColorMatrix type="matrix" values="0 0 0 0 0 0 0 0 0 0 0 0 0 0 0 0 0 0 0.25 0"/>
<feBlend mode="normal" in2="BackgroundImageFix" result="effect1_dropShadow_615_3668"/>
<feBlend mode="normal" in="SourceGraphic" in2="effect1_dropShadow_615_3668" result="shape"/>
</filter>
<filter id="filter24_d_615_3668" x="505.468" y="118.351" width="54.0633" height="14.0633" filterUnits="userSpaceOnUse" color-interpolation-filters="sRGB">
<feFlood flood-opacity="0" result="BackgroundImageFix"/>
<feColorMatrix in="SourceAlpha" type="matrix" values="0 0 0 0 0 0 0 0 0 0 0 0 0 0 0 0 0 0 127 0" result="hardAlpha"/>
<feOffset dy="0.882911"/>
<feGaussianBlur stdDeviation="1.76582"/>
<feComposite in2="hardAlpha" operator="out"/>
<feColorMatrix type="matrix" values="0 0 0 0 0 0 0 0 0 0 0 0 0 0 0 0 0 0 0.25 0"/>
<feBlend mode="normal" in2="BackgroundImageFix" result="effect1_dropShadow_615_3668"/>
<feBlend mode="normal" in="SourceGraphic" in2="effect1_dropShadow_615_3668" result="shape"/>
</filter>
<filter id="filter25_d_615_3668" x="505.468" y="131.351" width="37.0633" height="14.0633" filterUnits="userSpaceOnUse" color-interpolation-filters="sRGB">
<feFlood flood-opacity="0" result="BackgroundImageFix"/>
<feColorMatrix in="SourceAlpha" type="matrix" values="0 0 0 0 0 0 0 0 0 0 0 0 0 0 0 0 0 0 127 0" result="hardAlpha"/>
<feOffset dy="0.882911"/>
<feGaussianBlur stdDeviation="1.76582"/>
<feComposite in2="hardAlpha" operator="out"/>
<feColorMatrix type="matrix" values="0 0 0 0 0 0 0 0 0 0 0 0 0 0 0 0 0 0 0.25 0"/>
<feBlend mode="normal" in2="BackgroundImageFix" result="effect1_dropShadow_615_3668"/>
<feBlend mode="normal" in="SourceGraphic" in2="effect1_dropShadow_615_3668" result="shape"/>
</filter>
<linearGradient id="paint0_linear_615_3668" x1="125.464" y1="163.986" x2="156.282" y2="191.082" gradientUnits="userSpaceOnUse">
<stop offset="1.61469e-07" stop-color="#D9DCFA"/>
<stop offset="1" stop-color="#D9DCFA" stop-opacity="0.2"/>
</linearGradient>
<linearGradient id="paint1_linear_615_3668" x1="164.919" y1="191.111" x2="195.737" y2="218.207" gradientUnits="userSpaceOnUse">
<stop offset="1.61469e-07" stop-color="#D9DCFA"/>
<stop offset="1" stop-color="#D9DCFA" stop-opacity="0.2"/>
</linearGradient>
<linearGradient id="paint2_linear_615_3668" x1="99.769" y1="199.866" x2="146.187" y2="211.47" gradientUnits="userSpaceOnUse">
<stop stop-color="#FFE792"/>
<stop offset="1" stop-color="#43B59A"/>
</linearGradient>
<linearGradient id="paint3_linear_615_3668" x1="81.4424" y1="129.059" x2="135.375" y2="176.478" gradientUnits="userSpaceOnUse">
<stop offset="1.61469e-07" stop-color="#D9DCFA"/>
<stop offset="1" stop-color="#D9DCFA" stop-opacity="0.2"/>
</linearGradient>
<linearGradient id="paint4_linear_615_3668" x1="127.407" y1="347" x2="252.985" y2="194.529" gradientUnits="userSpaceOnUse">
<stop stop-color="#145DEB"/>
<stop offset="1" stop-color="#441C99"/>
</linearGradient>
<linearGradient id="paint5_linear_615_3668" x1="93" y1="47" x2="153.1" y2="226.925" gradientUnits="userSpaceOnUse">
<stop stop-color="#7B31AF"/>
<stop offset="1" stop-color="#381583"/>
</linearGradient>
<linearGradient id="paint6_linear_615_3668" x1="64" y1="60" x2="124.923" y2="75.2308" gradientUnits="userSpaceOnUse">
<stop stop-color="#FFE792"/>
<stop offset="1" stop-color="#43B59A"/>
</linearGradient>
<linearGradient id="paint7_linear_615_3668" x1="23.8068" y1="86.7914" x2="48.6328" y2="108.619" gradientUnits="userSpaceOnUse">
<stop offset="1.61469e-07" stop-color="#D9DCFA"/>
<stop offset="1" stop-color="#D9DCFA" stop-opacity="0.2"/>
</linearGradient>
<linearGradient id="paint8_linear_615_3668" x1="54.3928" y1="98.2097" x2="84.3551" y2="124.553" gradientUnits="userSpaceOnUse">
<stop offset="1.61469e-07" stop-color="#D9DCFA"/>
<stop offset="1" stop-color="#D9DCFA" stop-opacity="0.2"/>
</linearGradient>
<linearGradient id="paint9_linear_615_3668" x1="43" y1="36" x2="72.3261" y2="64.1899" gradientUnits="userSpaceOnUse">
<stop stop-color="#4BD6B5"/>
<stop offset="1" stop-color="#145DEB"/>
</linearGradient>
<linearGradient id="paint10_linear_615_3668" x1="43.7236" y1="229.715" x2="165.232" y2="413.797" gradientUnits="userSpaceOnUse">
<stop offset="1.61469e-07" stop-color="#D9DCFA"/>
<stop offset="1" stop-color="#D9DCFA" stop-opacity="0.2"/>
</linearGradient>
<linearGradient id="paint11_linear_615_3668" x1="43.7236" y1="229.715" x2="165.232" y2="413.797" gradientUnits="userSpaceOnUse">
<stop offset="1.61469e-07" stop-color="#D9DCFA"/>
<stop offset="1" stop-color="#D9DCFA" stop-opacity="0.2"/>
</linearGradient>
<linearGradient id="paint12_linear_615_3668" x1="274.96" y1="280.693" x2="205.497" y2="385.929" gradientUnits="userSpaceOnUse">
<stop offset="1.61469e-07" stop-color="#D9DCFA"/>
<stop offset="1" stop-color="#D9DCFA" stop-opacity="0.2"/>
</linearGradient>
<linearGradient id="paint13_linear_615_3668" x1="274.96" y1="280.693" x2="205.497" y2="385.929" gradientUnits="userSpaceOnUse">
<stop offset="1.61469e-07" stop-color="#D9DCFA"/>
<stop offset="1" stop-color="#D9DCFA" stop-opacity="0.2"/>
</linearGradient>
<linearGradient id="paint14_linear_615_3668" x1="582.694" y1="267.32" x2="493.393" y2="402.61" gradientUnits="userSpaceOnUse">
<stop offset="1.61469e-07" stop-color="#D9DCFA"/>
<stop offset="1" stop-color="#D9DCFA" stop-opacity="0.2"/>
</linearGradient>
<linearGradient id="paint15_linear_615_3668" x1="582.694" y1="267.32" x2="493.393" y2="402.61" gradientUnits="userSpaceOnUse">
<stop offset="1.61469e-07" stop-color="#D9DCFA"/>
<stop offset="1" stop-color="#D9DCFA" stop-opacity="0.2"/>
</linearGradient>
<linearGradient id="paint16_linear_615_3668" x1="116" y1="30.01" x2="147.338" y2="35.5375" gradientUnits="userSpaceOnUse">
<stop stop-color="#9043C6"/>
<stop offset="1" stop-color="#441C99"/>
</linearGradient>
<linearGradient id="paint17_linear_615_3668" x1="150.01" y1="30" x2="181.359" y2="35.5302" gradientUnits="userSpaceOnUse">
<stop stop-color="#9043C6"/>
<stop offset="1" stop-color="#441C99"/>
</linearGradient>
<linearGradient id="paint18_linear_615_3668" x1="184.01" y1="30" x2="215.359" y2="35.5302" gradientUnits="userSpaceOnUse">
<stop stop-color="#9043C6"/>
<stop offset="1" stop-color="#441C99"/>
</linearGradient>
<linearGradient id="paint19_linear_615_3668" x1="218.01" y1="30" x2="249.359" y2="35.5302" gradientUnits="userSpaceOnUse">
<stop stop-color="#9043C6"/>
<stop offset="1" stop-color="#441C99"/>
</linearGradient>
<linearGradient id="paint20_linear_615_3668" x1="252.02" y1="30" x2="283.369" y2="35.5302" gradientUnits="userSpaceOnUse">
<stop stop-color="#9043C6"/>
<stop offset="1" stop-color="#441C99"/>
</linearGradient>
<linearGradient id="paint21_linear_615_3668" x1="286.02" y1="30" x2="317.369" y2="35.5302" gradientUnits="userSpaceOnUse">
<stop stop-color="#9043C6"/>
<stop offset="1" stop-color="#441C99"/>
</linearGradient>
<linearGradient id="paint22_linear_615_3668" x1="320.02" y1="30" x2="351.369" y2="35.5302" gradientUnits="userSpaceOnUse">
<stop stop-color="#9043C6"/>
<stop offset="1" stop-color="#441C99"/>
</linearGradient>
<linearGradient id="paint23_linear_615_3668" x1="354.03" y1="30" x2="385.379" y2="35.5302" gradientUnits="userSpaceOnUse">
<stop stop-color="#9043C6"/>
<stop offset="1" stop-color="#441C99"/>
</linearGradient>
<linearGradient id="paint24_linear_615_3668" x1="388.03" y1="30" x2="419.379" y2="35.5302" gradientUnits="userSpaceOnUse">
<stop stop-color="#9043C6"/>
<stop offset="1" stop-color="#441C99"/>
</linearGradient>
<linearGradient id="paint25_linear_615_3668" x1="422.03" y1="30" x2="453.379" y2="35.5302" gradientUnits="userSpaceOnUse">
<stop stop-color="#9043C6"/>
<stop offset="1" stop-color="#441C99"/>
</linearGradient>
<linearGradient id="paint26_linear_615_3668" x1="456.04" y1="30" x2="487.389" y2="35.5302" gradientUnits="userSpaceOnUse">
<stop stop-color="#9043C6"/>
<stop offset="1" stop-color="#441C99"/>
</linearGradient>
<linearGradient id="paint27_linear_615_3668" x1="490.04" y1="30" x2="521.389" y2="35.5302" gradientUnits="userSpaceOnUse">
<stop stop-color="#9043C6"/>
<stop offset="1" stop-color="#441C99"/>
</linearGradient>
<linearGradient id="paint28_linear_615_3668" x1="524.04" y1="30" x2="555.389" y2="35.5302" gradientUnits="userSpaceOnUse">
<stop stop-color="#9043C6"/>
<stop offset="1" stop-color="#441C99"/>
</linearGradient>
<linearGradient id="paint29_linear_615_3668" x1="176" y1="118" x2="191.389" y2="143.832" gradientUnits="userSpaceOnUse">
<stop stop-color="#FFE792"/>
<stop offset="1" stop-color="#43B59A"/>
</linearGradient>
<linearGradient id="paint30_linear_615_3668" x1="176" y1="131" x2="193.458" y2="149.705" gradientUnits="userSpaceOnUse">
<stop stop-color="#FFE792"/>
<stop offset="1" stop-color="#43B59A"/>
</linearGradient>
<linearGradient id="paint31_linear_615_3668" x1="439" y1="185" x2="432.926" y2="156.976" gradientUnits="userSpaceOnUse">
<stop stop-color="#E555AC"/>
<stop offset="1" stop-color="#F99048"/>
</linearGradient>
<linearGradient id="paint32_linear_615_3668" x1="410" y1="207" x2="401.058" y2="180.7" gradientUnits="userSpaceOnUse">
<stop stop-color="#E555AC"/>
<stop offset="1" stop-color="#F99048"/>
</linearGradient>
<linearGradient id="paint33_linear_615_3668" x1="308" y1="305" x2="323.389" y2="330.832" gradientUnits="userSpaceOnUse">
<stop stop-color="#FFE792"/>
<stop offset="1" stop-color="#43B59A"/>
</linearGradient>
<linearGradient id="paint34_linear_615_3668" x1="308" y1="318" x2="325.458" y2="336.705" gradientUnits="userSpaceOnUse">
<stop stop-color="#FFE792"/>
<stop offset="1" stop-color="#43B59A"/>
</linearGradient>
<linearGradient id="paint35_linear_615_3668" x1="108" y1="184" x2="110.161" y2="197.947" gradientUnits="userSpaceOnUse">
<stop stop-color="#4BD6B5"/>
<stop offset="1" stop-color="#145DEB"/>
</linearGradient>
<linearGradient id="paint36_linear_615_3668" x1="108" y1="197" x2="111.274" y2="210.487" gradientUnits="userSpaceOnUse">
<stop stop-color="#4BD6B5"/>
<stop offset="1" stop-color="#145DEB"/>
</linearGradient>
<linearGradient id="paint37_linear_615_3668" x1="241" y1="244" x2="256.389" y2="269.832" gradientUnits="userSpaceOnUse">
<stop stop-color="#FF78E1"/>
<stop offset="1" stop-color="#9043C6"/>
</linearGradient>
<linearGradient id="paint38_linear_615_3668" x1="241" y1="257" x2="258.458" y2="275.705" gradientUnits="userSpaceOnUse">
<stop stop-color="#FF78E1"/>
<stop offset="1" stop-color="#9043C6"/>
</linearGradient>
<linearGradient id="paint39_linear_615_3668" x1="509" y1="121" x2="524.389" y2="146.832" gradientUnits="userSpaceOnUse">
<stop stop-color="#FF78E1"/>
<stop offset="1" stop-color="#9043C6"/>
</linearGradient>
<linearGradient id="paint40_linear_615_3668" x1="509" y1="134" x2="526.458" y2="152.705" gradientUnits="userSpaceOnUse">
<stop stop-color="#FF78E1"/>
<stop offset="1" stop-color="#9043C6"/>
</linearGradient>
<radialGradient id="paint41_angular_615_3668" cx="0" cy="0" r="1" gradientUnits="userSpaceOnUse" gradientTransform="translate(444.783 161.739) rotate(103.109) scale(71.3797 101.655)">
<stop stop-color="#F99048"/>
<stop offset="0.889919" stop-color="#441C99"/>
<stop offset="1" stop-color="#441C99" stop-opacity="0"/>
</radialGradient>
</defs>
</svg>
